<svg xmlns="http://www.w3.org/2000/svg" width="109" height="17" viewBox="0 0 109 17">
    <g fill="#373A36" fill-rule="nonzero">
        <path d="M12.026 12.018a1.06 1.06 0 0 0-.745.327 5.306 5.306 0 0 1-3.898 1.593 4.804 4.804 0 0 1-3.59-1.593 5.835 5.835 0 0 1-1.452-3.91 5.32 5.32 0 0 1 1.364-3.88 5.042 5.042 0 0 1 3.678-1.663 5.277 5.277 0 0 1 3.768 1.542c.217.192.49.303.776.316.627-.005 1.137-.52 1.153-1.163-.006-.36-.166-.7-.437-.93a7.444 7.444 0 0 0-5.24-1.99 7.187 7.187 0 0 0-5.32 2.297A7.986 7.986 0 0 0-.006 8.435a7.945 7.945 0 0 0 2.089 5.503 7.137 7.137 0 0 0 5.26 2.256 7.345 7.345 0 0 0 5.42-2.195c.238-.214.375-.522.377-.847a1.159 1.159 0 0 0-1.114-1.134zM22.517.667a7.276 7.276 0 0 0-5.42 2.338 7.976 7.976 0 0 0-2.078 5.44 7.937 7.937 0 0 0 2.059 5.493 7.49 7.49 0 0 0 5.41 2.327 7.49 7.49 0 0 0 5.409-2.327 7.976 7.976 0 0 0 2.068-5.441 7.936 7.936 0 0 0-2.048-5.42 7.251 7.251 0 0 0-5.4-2.41zm5.101 7.768a5.338 5.338 0 0 1-1.406 3.87 5.059 5.059 0 0 1-3.695 1.633 4.912 4.912 0 0 1-3.69-1.623 5.793 5.793 0 0 1-1.46-3.93 5.338 5.338 0 0 1 1.405-3.87 5.059 5.059 0 0 1 3.695-1.633 4.912 4.912 0 0 1 3.69 1.623 5.792 5.792 0 0 1 1.471 3.93h-.01zM43.439.81c-.637 0-1.154.53-1.154 1.184v5.278h-7.338V1.994c0-.648-.512-1.174-1.144-1.174-.631 0-1.143.526-1.143 1.174v12.893c0 .648.512 1.174 1.143 1.174.632 0 1.144-.526 1.144-1.174v-5.37h7.338v5.36c0 .42.218.807.572 1.016.354.21.79.21 1.144 0a1.18 1.18 0 0 0 .571-1.016V1.994C44.567 1.35 44.066.827 43.44.81zM57.668 13.764h-7.626V9.477h6.632c.593 0 1.074-.494 1.074-1.103a1.109 1.109 0 0 0-1.074-1.102h-6.632V3.117h7.517c.593 0 1.074-.494 1.074-1.102 0-.61-.48-1.103-1.074-1.103h-8.67a1.128 1.128 0 0 0-.826.34 1.19 1.19 0 0 0-.338.844v12.689a1.19 1.19 0 0 0 .334.85c.22.226.519.35.83.344h8.78c.593 0 1.073-.493 1.073-1.102 0-.61-.48-1.103-1.074-1.103v-.01zM78.173.81c-.627.017-1.129.54-1.134 1.184v12.893c0 .648.512 1.174 1.143 1.174.632 0 1.144-.526 1.144-1.174V1.994c0-.654-.516-1.184-1.153-1.184zM92.342.912h-9.685c-.611-.006-1.113.496-1.123 1.123.002.295.119.577.324.784.205.207.482.321.77.318h3.689v11.75c0 .654.516 1.184 1.153 1.184s1.153-.53 1.153-1.184V3.137h3.69c.297.02.59-.087.808-.296.218-.208.343-.5.345-.806-.01-.627-.512-1.129-1.124-1.123zM107.248.81a1.24 1.24 0 0 0-.994.643l-4.385 6.36-4.316-6.36A1.258 1.258 0 0 0 96.509.81c-.633 0-1.152.515-1.173 1.164.008.266.091.525.238.745l5.131 7.37v4.798c0 .654.517 1.184 1.154 1.184.637 0 1.153-.53 1.153-1.184v-4.839l5.091-7.268a1.6 1.6 0 0 0 .269-.786 1.18 1.18 0 0 0-.322-.832 1.12 1.12 0 0 0-.802-.352zM69.044 5.169h-3.281c-.604 0-1.094.503-1.094 1.123s.49 1.123 1.094 1.123h3.291c1.697 0 3.073 1.412 3.073 3.154s-1.376 3.154-3.073 3.154h-6.583c-.604 0-1.094.503-1.094 1.123s.49 1.123 1.094 1.123h6.573c1.936.086 3.762-.925 4.755-2.632a5.534 5.534 0 0 0 0-5.546c-.993-1.708-2.82-2.719-4.755-2.632v.01z"/>
        <path d="M65.683 11.722h3.311c.605 0 1.094-.502 1.094-1.122 0-.62-.49-1.123-1.094-1.123h-3.31c-1.698 0-3.074-1.413-3.074-3.155 0-1.742 1.376-3.154 3.073-3.154h6.354c.604 0 1.094-.503 1.094-1.123S72.641.922 72.037.922h-6.354c-1.936-.086-3.761.925-4.754 2.633a5.534 5.534 0 0 0 0 5.545c.993 1.708 2.818 2.719 4.754 2.633v-.01z"/>
    </g>
</svg>
